<svg width="39" height="34" viewBox="0 0 39 34" fill="none" xmlns="http://www.w3.org/2000/svg">
<path d="M1.625 0.750038C1.19402 0.750038 0.780698 0.921243 0.475952 1.22599C0.171205 1.53074 0 1.94406 0 2.37504C0 2.80601 0.171205 3.21934 0.475952 3.52409C0.780698 3.82883 1.19402 4.00004 1.625 4.00004H5.2325L9.4965 21.0625C9.85887 22.5088 11.154 23.5 12.6441 23.5H31.2829C32.7502 23.5 33.9966 22.525 34.3818 21.1113L38.5938 5.62504H11.375L12.1875 8.87504H34.3785L31.2812 20.25H12.6425L8.38012 3.18754C8.20405 2.48753 7.79817 1.86686 7.22748 1.42492C6.65678 0.982981 5.95429 0.745333 5.2325 0.750038H1.625ZM29.25 23.5C26.5769 23.5 24.375 25.7019 24.375 28.375C24.375 31.0482 26.5769 33.25 29.25 33.25C31.9231 33.25 34.125 31.0482 34.125 28.375C34.125 25.7019 31.9231 23.5 29.25 23.5ZM14.625 23.5C11.9519 23.5 9.75 25.7019 9.75 28.375C9.75 31.0482 11.9519 33.25 14.625 33.25C17.2981 33.25 19.5 31.0482 19.5 28.375C19.5 25.7019 17.2981 23.5 14.625 23.5ZM14.625 26.75C15.5415 26.75 16.25 27.4585 16.25 28.375C16.25 29.2915 15.5415 30 14.625 30C13.7085 30 13 29.2915 13 28.375C13 27.4585 13.7085 26.75 14.625 26.75ZM29.25 26.75C30.1665 26.75 30.875 27.4585 30.875 28.375C30.875 29.2915 30.1665 30 29.25 30C28.3335 30 27.625 29.2915 27.625 28.375C27.625 27.4585 28.3335 26.75 29.25 26.75Z" fill="black"/>
</svg>
