<svg width="252" height="74" viewBox="0 0 252 74" fill="none" xmlns="http://www.w3.org/2000/svg">
<path fill-rule="evenodd"  clip-rule="evenodd" d="M79.2774 15.5748C82.1374 14.0883 83.7567 11.4928 82.8946 9.77764C82.0327 8.06251 79.0156 7.87723 76.1556 9.36381C73.2959 10.8504 71.6763 13.4459 72.5384 15.161C73.4006 16.8761 76.4177 17.0614 79.2774 15.5748ZM78.497 14.0221C80.1312 13.1726 81.1064 11.7888 80.6755 10.9312C80.2446 10.0736 78.5703 10.0671 76.936 10.9166C75.3021 11.766 74.3266 13.1499 74.7575 14.0074C75.1887 14.865 76.863 14.8715 78.497 14.0221Z" fill="#FFD700"/>
<path fill-rule="evenodd" clip-rule="evenodd" d="M96.7537 12.9759C99.965 13.034 102.595 11.5199 102.629 9.59398C102.663 7.66807 100.087 6.05973 96.8757 6.00162C93.6644 5.94351 91.034 7.45766 91.0003 9.38357C90.9666 11.3094 93.5424 12.9178 96.7537 12.9759ZM96.7841 11.2324C98.6191 11.2655 100.12 10.5118 100.137 9.54889C100.154 8.58595 98.6802 7.77841 96.8452 7.7452C95.0103 7.71199 93.509 8.4657 93.492 9.42864C93.4753 10.3916 94.9491 11.1991 96.7841 11.2324Z" fill="#FFD700"/>
<path fill-rule="evenodd" clip-rule="evenodd" d="M104.205 14.8262C106.909 16.5888 109.93 16.7029 110.952 15.0812C111.974 13.4596 110.61 10.7162 107.906 8.95363C105.202 7.19109 102.182 7.07691 101.16 8.6986C100.137 10.3203 101.501 13.0637 104.205 14.8262ZM105.13 13.3581C106.675 14.3652 108.342 14.5244 108.853 13.7136C109.364 12.9027 108.526 11.4289 106.981 10.4218C105.436 9.41461 103.769 9.25548 103.258 10.0663C102.747 10.8771 103.585 12.3509 105.13 13.3581Z" fill="#FFD700"/>
<path fill-rule="evenodd" clip-rule="evenodd" d="M87.2776 13.5282C90.4546 13.0502 92.8055 11.1179 92.5281 9.21247C92.2511 7.307 89.4508 6.1499 86.2735 6.62799C83.0962 7.10608 80.7456 9.0383 81.0226 10.9438C81.3 12.8492 84.1003 14.0063 87.2776 13.5282ZM87.0265 11.8032C88.8421 11.53 90.2014 10.5362 90.0627 9.58344C89.924 8.63072 88.3399 8.07984 86.5246 8.35304C84.709 8.62623 83.3497 9.62004 83.4881 10.5728C83.6267 11.5255 85.2109 12.0764 87.0265 11.8032Z" fill="#FFD700"/>
<path fill-rule="evenodd" clip-rule="evenodd" d="M92.9665 58.5695C95.3476 60.7613 98.3083 61.3806 99.5794 59.9527C100.851 58.5246 99.951 55.5901 97.5696 53.398C95.1886 51.2062 92.2278 50.5869 90.9568 52.015C89.6858 53.4429 90.5855 56.3774 92.9665 58.5695ZM94.1174 57.2766C95.4779 58.5292 97.0964 58.9656 97.7319 58.2516C98.3674 57.5377 97.7796 55.9434 96.4191 54.6909C95.0583 53.4383 93.4401 53.0019 92.8046 53.7158C92.1691 54.43 92.7569 56.0241 94.1174 57.2766Z" fill="#D9B700"/>
<path fill-rule="evenodd" clip-rule="evenodd" d="M85.9919 51.3514C87.7234 54.1025 90.4203 55.4906 92.0158 54.4522C93.611 53.4137 93.5003 50.3418 91.7689 47.5911C90.0374 44.84 87.3405 43.4519 85.7453 44.4904C84.1501 45.5288 84.2605 48.6007 85.9919 51.3514ZM87.4362 50.4116C88.4258 51.9835 89.8742 52.8369 90.672 52.3174C91.4697 51.7982 91.3141 50.1031 90.3248 48.5313C89.3353 46.9594 87.8866 46.1059 87.0888 46.6251C86.2914 47.1444 86.4467 48.8394 87.4362 50.4116Z" fill="#D9B700"/>
<path fill-rule="evenodd" clip-rule="evenodd" d="M98.1219 22.7364C100.786 20.9127 102.089 18.1389 101.031 16.5409C99.9736 14.943 96.9562 15.1259 94.2918 16.9497C91.6275 18.7734 90.3248 21.5472 91.3824 23.1452C92.4402 24.7432 95.4573 24.5602 98.1219 22.7364ZM97.1643 21.2898C98.6868 20.2476 99.4926 18.7551 98.9635 17.9561C98.4348 17.1571 96.7719 17.3542 95.2494 18.3964C93.7267 19.4385 92.9212 20.931 93.45 21.73C93.9787 22.529 95.6419 22.3319 97.1643 21.2898Z" fill="#D9B700"/>
<path fill-rule="evenodd" clip-rule="evenodd" d="M104.919 20.7033C108.131 20.6586 110.713 19.061 110.687 17.1349C110.661 15.2089 108.037 13.6838 104.825 13.7286C101.614 13.7733 99.0318 15.3709 99.0578 17.297C99.0837 19.223 101.708 20.7481 104.919 20.7033ZM104.896 18.9596C106.731 18.9341 108.208 18.1327 108.195 17.1697C108.182 16.2066 106.684 15.4467 104.849 15.4723C103.014 15.4978 101.537 16.2992 101.55 17.2622C101.563 18.2253 103.061 18.9852 104.896 18.9596Z" fill="#D9B700"/>
<path fill-rule="evenodd" clip-rule="evenodd" d="M91.7632 30.159C93.3843 27.3396 93.3733 24.2657 91.7381 23.2933C90.103 22.321 87.4634 23.8185 85.8419 26.638C84.2208 29.4575 84.2321 32.5315 85.867 33.5038C87.5022 34.4761 90.142 32.9785 91.7632 30.159ZM90.2828 29.2788C91.2094 27.6676 91.2977 25.9674 90.4799 25.4813C89.6625 24.9951 88.2486 25.9071 87.3223 27.5182C86.396 29.1294 86.3078 30.8295 87.1252 31.3157C87.9426 31.8018 89.3565 30.8899 90.2828 29.2788Z" fill="#D9B700"/>
<path fill-rule="evenodd" clip-rule="evenodd" d="M82.2125 38.6122C81.7724 41.8476 82.9363 44.6845 84.8125 44.9483C86.6889 45.2125 88.5668 42.8038 89.007 39.5685C89.4475 36.3331 88.2832 33.4962 86.4071 33.2324C84.5309 32.9682 82.653 35.3768 82.2125 38.6122ZM83.9112 38.8512C83.6595 40.7 84.216 42.3059 85.1542 42.4378C86.0924 42.5697 87.0569 41.1783 87.3083 39.3295C87.56 37.4807 87.0035 35.8748 86.0653 35.7429C85.1274 35.6107 84.1629 37.0024 83.9112 38.8512Z" fill="#D9B700"/>
<path fill-rule="evenodd" clip-rule="evenodd" d="M104.975 63.6885C108.763 63.6885 111.834 60.5657 111.834 56.7131C111.834 52.8606 108.763 49.7377 104.975 49.7377C101.187 49.7377 98.116 52.8606 98.116 56.7131C98.116 60.5657 101.187 63.6885 104.975 63.6885ZM105.091 61.797C107.917 61.797 110.207 59.4678 110.207 56.5948C110.207 53.7219 107.917 51.393 105.091 51.393C102.266 51.393 99.976 53.7219 99.976 56.5948C99.976 59.4678 102.266 61.797 105.091 61.797Z" fill="#D9B700"/>
<path stroke="black" d="M15.3155 52.8023C15.1126 54.2656 14.8174 55.513 14.4301 56.5445C14.0428 57.5574 13.5724 58.392 13.0191 59.0486C12.4657 59.6864 11.8294 60.1459 11.11 60.4273C10.4091 60.7276 9.63445 60.8774 8.78597 60.8774C7.58708 60.8774 6.46194 60.5211 5.41057 59.8084C4.37764 59.0957 3.48309 58.0357 2.72683 56.6291C1.97059 55.2222 1.37114 53.4777 0.928457 51.3957C0.504226 49.3137 0.292109 46.9032 0.292109 44.1646C0.292109 41.2947 0.559559 38.5094 1.09446 35.8081C1.64781 33.1071 2.42249 30.5747 3.41852 28.2114C4.43299 25.848 5.64113 23.6909 7.04294 21.7401C8.4632 19.7706 10.0402 18.0918 11.7741 16.7037C13.5263 15.2969 15.4169 14.209 17.4459 13.4399C19.4748 12.6521 21.596 12.2582 23.8093 12.2582C25.7092 12.2582 27.443 12.5489 29.0108 13.1304C30.5785 13.7119 31.925 14.5185 33.0502 15.5501C34.1754 16.5818 35.0423 17.801 35.651 19.2078C36.2597 20.6147 36.5639 22.134 36.5639 23.7659C36.5639 25.7354 36.2966 27.5737 35.7616 29.2806C35.2266 30.9687 34.4799 32.5163 33.5205 33.9229C32.5799 35.3298 31.4547 36.5866 30.1452 37.6933C28.8356 38.7999 27.4061 39.738 25.8567 40.5068C24.3258 41.2759 22.7027 41.8761 20.9873 42.3077C19.2903 42.7204 17.5657 42.9549 15.8135 43.011C15.7581 45.3556 15.6936 47.3345 15.6198 48.9479C15.5645 50.5423 15.463 51.827 15.3155 52.8023ZM10.5014 41.0133C10.5936 41.0509 10.7042 41.0885 10.8334 41.1258C10.944 41.1634 11.0731 41.201 11.2207 41.2386C11.3867 41.2759 11.5804 41.3135 11.8017 41.3511C11.7648 39.0065 11.7187 36.8587 11.6634 34.908C11.6265 32.9382 11.5804 31.2219 11.525 29.7589C11.4513 28.052 11.3867 26.5139 11.3314 25.1446C11.4605 25.032 11.608 24.9382 11.7741 24.8632C11.9216 24.7882 12.0968 24.7225 12.2997 24.6662C12.5026 24.61 12.7516 24.5818 13.0467 24.5818C13.8952 24.5818 14.5777 24.7413 15.0941 25.0602C15.6106 25.3603 15.8688 25.8761 15.8688 26.6077C15.8688 29.7026 15.8688 32.4787 15.8688 34.9359C15.8688 37.3933 15.8504 39.6067 15.8135 41.5762C18.2298 41.5762 20.4155 41.1073 22.3707 40.1692C24.3442 39.2315 26.0227 37.9841 27.4061 36.4271C28.7895 34.8516 29.8592 33.0416 30.6155 30.9969C31.3718 28.9523 31.7499 26.814 31.7499 24.5818C31.7499 23.1563 31.5561 21.8058 31.169 20.5302C30.8001 19.236 30.2281 18.1105 29.4535 17.1539C28.6788 16.1785 27.7012 15.4095 26.5207 14.8467C25.3587 14.2652 23.9846 13.9745 22.3983 13.9745C20.7936 13.9745 19.2073 14.284 17.6395 14.903C16.0902 15.522 14.6054 16.4505 13.1851 17.6885C11.7833 18.9265 10.4829 20.4646 9.28401 22.3028C8.10351 24.1411 7.07061 26.2888 6.18524 28.746C5.31833 31.2031 4.63587 33.9605 4.13787 37.0182C3.65829 40.0567 3.41852 43.4049 3.41852 47.0628C3.41852 48.6383 3.4923 50.1765 3.63986 51.6772C3.80586 53.159 4.0733 54.4813 4.44221 55.6443C4.81111 56.7883 5.2999 57.7075 5.90858 58.4015C6.53572 59.0957 7.31038 59.4426 8.23265 59.4426C8.73065 59.4426 9.20098 59.3395 9.64367 59.133C10.0864 58.9267 10.4737 58.5049 10.8057 57.8671C11.1377 57.2105 11.4052 56.2818 11.608 55.0815C11.811 53.8623 11.9124 52.2397 11.9124 50.2138C11.9124 48.9386 11.9032 47.6818 11.8847 46.4438C11.8663 45.187 11.8571 43.9678 11.8571 42.7859C11.5804 42.7483 11.3406 42.7016 11.1377 42.6452C10.9348 42.5891 10.7596 42.5421 10.612 42.5045C10.446 42.4484 10.3077 42.392 10.197 42.3359L10.5014 41.0133Z" fill="black"/>
<path d="M165.338 15.0718H163.291C162.35 15.0718 161.576 15.2782 160.967 15.6908C160.358 16.1035 159.851 16.6568 159.445 17.3508C159.058 18.0449 158.744 18.8608 158.504 19.7987C158.265 20.7366 158.034 21.7401 157.813 22.8093C157.61 23.8597 157.388 24.9476 157.149 26.0731C156.909 27.1798 156.586 28.2677 156.18 29.3369C155.775 30.3873 155.258 31.3909 154.631 32.3474C154.004 33.3039 153.211 34.1389 152.252 34.8516C153.229 35.6395 154.059 36.596 154.742 37.7215C155.443 38.8282 156.042 40.0379 156.54 41.3511C157.038 42.664 157.472 44.0427 157.841 45.487C158.209 46.9127 158.56 48.3381 158.892 49.7638C159.242 51.1892 159.593 52.5679 159.943 53.8999C160.312 55.2316 160.746 56.4602 161.244 57.5856C161.76 58.6923 162.36 59.6489 163.042 60.4556C163.743 61.2808 164.582 61.881 165.56 62.2561C166.5 62.6313 167.515 62.8751 168.603 62.9876C169.691 63.119 170.964 63.1848 172.421 63.1848L172.532 64.3385C172.292 64.3946 172.016 64.4416 171.702 64.4789C171.444 64.5165 171.121 64.5447 170.733 64.5635C170.346 64.6008 169.903 64.6196 169.405 64.6196C166.749 64.6196 164.536 64.3008 162.765 63.6631C161.013 63.0253 159.574 62.1624 158.449 61.0746C157.343 59.9867 156.494 58.7299 155.904 57.3042C155.332 55.8788 154.889 54.3782 154.576 52.8023C154.281 51.2268 154.05 49.6231 153.884 47.9911C153.736 46.3407 153.534 44.7742 153.275 43.2924C153.036 41.7918 152.676 40.4225 152.196 39.1845C151.735 37.9277 151.034 36.8869 150.094 36.0614C149.393 36.3428 148.609 36.5866 147.742 36.7929C146.893 36.9994 145.953 37.1307 144.92 37.1868V45.0369C144.92 46.6124 144.892 47.9911 144.837 49.173C144.8 50.3358 144.689 51.3769 144.505 52.2962C144.339 53.1963 144.08 54.0124 143.73 54.7439C143.38 55.4566 142.909 56.1599 142.319 56.8541C141.305 58.0357 139.857 59.002 137.975 59.7523C136.113 60.5023 133.899 60.8774 131.335 60.8774C129.749 60.8774 128.236 60.6524 126.798 60.2023C125.359 59.7523 124.096 59.1239 123.007 58.3172C121.919 57.5107 121.052 56.5445 120.407 55.419C119.761 54.2936 119.438 53.0465 119.438 51.6772C119.438 50.6642 119.604 49.7544 119.936 48.948C120.25 48.1412 120.665 47.4285 121.181 46.8096C121.679 46.1718 122.242 45.6277 122.869 45.1776C123.496 44.7272 124.105 44.3524 124.695 44.0521C125.267 43.7519 125.792 43.5175 126.272 43.3488C126.77 43.1799 127.139 43.0674 127.379 43.011L127.932 44.1647C127.508 44.3897 127.028 44.6993 126.493 45.0933C125.977 45.4685 125.488 45.9561 125.027 46.5563C124.566 47.1377 124.178 47.8504 123.865 48.6947C123.551 49.5388 123.395 50.5329 123.395 51.6772C123.395 52.8964 123.598 53.9936 124.003 54.969C124.409 55.9255 124.972 56.7416 125.691 57.4167C126.429 58.0733 127.296 58.5798 128.292 58.9361C129.306 59.2737 130.413 59.4426 131.612 59.4426C132.958 59.4426 134.185 59.2552 135.292 58.88C136.417 58.5049 137.376 57.8765 138.169 56.9949C138.962 56.1132 139.58 54.9408 140.023 53.4777C140.465 52.0147 140.687 50.1951 140.687 48.0193V37.0182C140.152 36.9054 139.7 36.765 139.331 36.596C138.981 36.4083 138.695 36.2115 138.473 36.0052C138.27 35.7802 138.123 35.5549 138.031 35.3298C137.939 35.1048 137.892 34.8798 137.892 34.6547C137.892 34.4482 137.939 34.2326 138.031 34.0076C138.123 33.7637 138.27 33.5387 138.473 33.3321C138.695 33.1259 138.981 32.9288 139.331 32.7414C139.7 32.5539 140.152 32.4038 140.687 32.2913V29.984C140.687 28.4834 140.714 27.0579 140.77 25.7073C140.844 24.338 141.019 23.0156 141.295 21.7401C141.572 20.4458 141.996 19.1985 142.568 17.998C143.14 16.7787 143.924 15.5689 144.92 14.3684C143.979 14.9687 143.011 15.3813 142.015 15.6064C141.019 15.8315 140.004 15.9441 138.971 15.9441C137.699 15.9441 136.398 15.8596 135.07 15.6908C133.761 15.5032 132.423 15.4095 131.059 15.4095C130.284 15.4095 129.611 15.5126 129.039 15.719C128.467 15.9253 127.987 16.1973 127.6 16.5349C127.231 16.8725 126.955 17.2664 126.77 17.7166C126.604 18.1668 126.521 18.6451 126.521 19.1516C126.521 19.658 126.641 20.1551 126.881 20.6428C127.12 21.1305 127.471 21.5619 127.932 21.9371C128.393 22.3122 128.956 22.6217 129.62 22.8655C130.284 23.0906 131.04 23.2032 131.888 23.2032C132.663 23.2032 133.364 23.1282 133.991 22.9781C134.637 22.828 135.181 22.6592 135.624 22.4717C136.14 22.2653 136.601 22.0121 137.007 21.712L137.56 22.9218C137.062 23.2595 136.509 23.5502 135.9 23.7941C135.384 24.0004 134.775 24.1973 134.074 24.3849C133.392 24.5537 132.663 24.6382 131.888 24.6382C130.837 24.6382 129.869 24.4881 128.983 24.188C128.117 23.8691 127.369 23.447 126.742 22.9218C126.134 22.3779 125.663 21.7401 125.331 21.0086C124.981 20.2583 124.806 19.4517 124.806 18.5889C124.806 17.5759 124.99 16.685 125.359 15.9159C125.728 15.1281 126.226 14.4622 126.853 13.9183C127.499 13.3743 128.246 12.9616 129.094 12.6802C129.961 12.3989 130.892 12.2582 131.888 12.2582C132.903 12.2582 133.853 12.3239 134.738 12.4552C135.624 12.5677 136.463 12.699 137.256 12.8491C138.068 12.9804 138.842 13.1117 139.58 13.243C140.336 13.3555 141.083 13.4118 141.821 13.4118C142.559 13.4118 143.297 13.3274 144.035 13.1586C144.772 12.9898 145.547 12.6896 146.359 12.2582L147.493 13.1023C147.069 13.665 146.7 14.2934 146.386 14.9874C146.073 15.6815 145.805 16.5255 145.584 17.5197C145.363 18.5138 145.196 19.7049 145.086 21.093C144.975 22.481 144.92 24.1411 144.92 26.0731V32.1788C146.949 32.3474 148.673 32.7696 150.094 33.4447C151.053 32.7696 151.772 31.9722 152.252 31.0533C152.75 30.1153 153.109 29.1212 153.331 28.0708C153.571 27.0203 153.727 25.9324 153.801 24.807C153.875 23.6815 153.967 22.5842 154.078 21.515C154.189 20.4458 154.373 19.4329 154.631 18.4763C154.889 17.5197 155.313 16.685 155.904 15.9722C156.512 15.2594 157.333 14.6967 158.366 14.284C159.418 13.8526 160.792 13.6369 162.489 13.6369H165.338V15.0718ZM144.92 35.3016C145.971 35.1891 146.94 34.9735 147.825 34.6547C146.958 34.3169 145.99 34.0919 144.92 33.9793V35.3016ZM139.331 34.6547C139.331 34.8986 139.423 35.0954 139.608 35.2455C139.811 35.3769 140.17 35.4706 140.687 35.527V33.9229C140.115 33.9793 139.746 34.0731 139.58 34.2044C139.414 34.3357 139.331 34.4858 139.331 34.6547ZM188.557 59.4426C190.401 59.4426 192.015 59.1051 193.399 58.4297C194.782 57.7546 195.962 56.8635 196.94 55.7569C195.76 55.5315 194.671 55.1379 193.675 54.575C192.698 54.0124 191.849 53.3182 191.13 52.493C190.41 51.649 189.848 50.7015 189.442 49.6513C189.036 48.5819 188.833 47.4285 188.833 46.1906C188.833 44.9714 189.046 43.8553 189.47 42.8424C189.894 41.8106 190.466 40.929 191.185 40.1975C191.904 39.4472 192.734 38.8658 193.675 38.453C194.634 38.0402 195.63 37.834 196.663 37.834C197.622 37.834 198.545 38.0123 199.43 38.3687C200.334 38.7251 201.127 39.2503 201.809 39.9442C202.492 40.6196 203.036 41.4731 203.442 42.5045C203.866 43.5175 204.078 44.6899 204.078 46.0216C204.078 47.3721 203.792 48.7884 203.221 50.2703C202.649 51.7521 201.837 53.159 200.786 54.4907C201.892 54.3406 202.861 54.0218 203.691 53.5342C204.521 53.0465 205.24 52.4648 205.849 51.7897C206.476 51.1143 207.011 50.3922 207.454 49.6231C207.915 48.8351 208.321 48.0757 208.671 47.3439L208.948 46.7531L210.082 47.6254L209.805 48.2162C209.233 49.3792 208.597 50.4389 207.896 51.3957C207.195 52.3523 206.421 53.1684 205.572 53.8435C204.724 54.5189 203.792 55.0439 202.778 55.419C201.763 55.7757 200.666 55.9631 199.485 55.9819C198.065 57.4449 196.359 58.6268 194.367 59.5269C192.375 60.4274 190.152 60.8774 187.699 60.8774C185.541 60.8774 183.577 60.5117 181.806 59.7802C180.035 59.0487 178.514 58.0545 177.241 56.7977C175.987 55.5409 175.009 54.0779 174.308 52.4087C173.607 50.7391 173.257 48.9571 173.257 47.0628C173.257 44.9244 173.579 43.0674 174.225 41.4919C174.889 39.8972 175.738 38.5373 176.77 37.4119C177.803 36.2864 178.947 35.3581 180.201 34.6265C181.474 33.8762 182.728 33.276 183.964 32.8257C182.784 32.3756 181.741 31.8036 180.838 31.1094C179.934 30.4155 179.168 29.6464 178.541 28.8023C177.933 27.9395 177.462 27.0297 177.13 26.0731C176.817 25.0977 176.66 24.1223 176.66 23.1469C176.66 21.3837 177.019 19.8268 177.739 18.4763C178.458 17.107 179.39 15.9628 180.533 15.0437C181.695 14.1058 182.996 13.4024 184.434 12.9335C185.891 12.4458 187.358 12.2019 188.833 12.2019C190.051 12.2019 191.213 12.352 192.32 12.6521C193.445 12.9522 194.422 13.3743 195.252 13.9183C195.695 13.8244 196.156 13.7588 196.636 13.7213C197.134 13.665 197.65 13.6369 198.185 13.6369V14.7905C197.871 14.7905 197.576 14.7999 197.3 14.8186C197.023 14.8374 196.756 14.8655 196.497 14.903C197.032 15.4282 197.447 16.0191 197.742 16.6756C198.037 17.3133 198.185 18.0261 198.185 18.814C198.185 19.5455 198.065 20.2114 197.825 20.8116C197.604 21.4118 197.281 21.9277 196.857 22.3591C196.451 22.7905 195.972 23.1282 195.418 23.372C194.865 23.5971 194.275 23.7096 193.648 23.7096C192.947 23.7096 192.32 23.5971 191.766 23.372C191.231 23.1469 190.779 22.8468 190.41 22.4717C190.042 22.0965 189.756 21.6557 189.553 21.1493C189.35 20.6428 189.248 20.1176 189.248 19.5736C189.248 19.1047 189.322 18.6264 189.47 18.1387C189.636 17.651 189.876 17.182 190.189 16.7319C190.521 16.2817 190.936 15.8596 191.434 15.4657C191.951 15.0718 192.559 14.7342 193.26 14.4528C192.559 14.1527 191.822 13.9464 191.047 13.8338C190.29 13.7025 189.645 13.6369 189.11 13.6369C187.819 13.6369 186.675 13.8714 185.679 14.3403C184.702 14.7905 183.881 15.4376 183.217 16.2817C182.553 17.1258 182.046 18.148 181.695 19.3485C181.363 20.549 181.197 21.8902 181.197 23.372C181.197 24.3287 181.308 25.2759 181.529 26.2138C181.75 27.1329 182.073 27.9863 182.498 28.7742C182.922 29.5432 183.457 30.2185 184.102 30.8001C184.748 31.3627 185.495 31.7848 186.343 32.066C187.136 31.8597 187.846 31.719 188.474 31.6441C189.101 31.5504 189.599 31.5034 189.968 31.5034C190.595 31.5034 191.047 31.6065 191.323 31.8127C191.6 32.0193 191.739 32.2819 191.739 32.6006C191.739 32.7508 191.711 32.9009 191.655 33.051C191.6 33.182 191.499 33.3039 191.351 33.4168C191.204 33.5293 190.992 33.623 190.715 33.6979C190.457 33.7731 190.115 33.8104 189.691 33.8104C189.156 33.8104 188.631 33.7919 188.114 33.7543C187.598 33.7167 187.1 33.6512 186.62 33.5572C185.403 33.8762 184.287 34.4109 183.272 35.1612C182.258 35.9112 181.382 36.8587 180.644 38.0029C179.924 39.1469 179.362 40.4789 178.956 41.998C178.551 43.5175 178.347 45.2058 178.347 47.0628C178.347 49.2009 178.633 51.0488 179.205 52.6055C179.777 54.1625 180.542 55.4472 181.501 56.4602C182.461 57.4731 183.549 58.2234 184.766 58.7111C185.984 59.1988 187.247 59.4426 188.557 59.4426ZM200.454 46.4717C200.454 45.3089 200.315 44.3054 200.039 43.4614C199.781 42.617 199.43 41.9231 198.987 41.379C198.545 40.8165 198.037 40.4037 197.466 40.1411C196.894 39.8787 196.304 39.7474 195.695 39.7474C195.049 39.7474 194.422 39.8972 193.814 40.1975C193.205 40.4789 192.651 40.8914 192.153 41.4355C191.674 41.9795 191.286 42.6546 190.992 43.4614C190.696 44.2678 190.549 45.1776 190.549 46.1906C190.549 47.316 190.724 48.3569 191.074 49.3137C191.443 50.2515 191.951 51.0861 192.596 51.8176C193.26 52.5306 194.044 53.1214 194.948 53.5903C195.87 54.0406 196.876 54.3406 197.964 54.4907C198.812 53.2527 199.439 51.9301 199.845 50.5235C200.251 49.1166 200.454 47.7661 200.454 46.4717ZM196.774 18.814C196.774 18.0074 196.58 17.3133 196.193 16.7319C195.806 16.1504 195.317 15.6533 194.727 15.2406C194.007 15.447 193.389 15.7096 192.873 16.0285C192.357 16.3473 191.932 16.7037 191.6 17.0976C191.287 17.4728 191.047 17.8761 190.881 18.3075C190.733 18.7202 190.659 19.1235 190.659 19.5174C190.659 20.2677 190.918 20.9148 191.434 21.4588C191.969 22.0027 192.707 22.2747 193.648 22.2747C194.644 22.2747 195.409 21.9558 195.944 21.3181C196.497 20.6616 196.774 19.8268 196.774 18.814ZM242.624 26.0168C242.624 27.9301 242.726 29.7964 242.929 31.6159C243.131 33.4168 243.353 35.2173 243.593 37.0182C243.851 38.8188 244.082 40.6475 244.284 42.5045C244.506 44.3615 244.616 46.3031 244.616 48.3287C244.616 50.2233 244.367 51.9489 243.869 53.5059C243.371 55.0439 242.578 56.3665 241.49 57.4731C240.402 58.561 239 59.3956 237.284 59.9773C235.588 60.5775 233.54 60.8774 231.142 60.8774C229.556 60.8774 228.044 60.6524 226.605 60.2023C225.166 59.7523 223.903 59.1239 222.815 58.3172C221.726 57.5107 220.859 56.5445 220.214 55.419C219.568 54.2936 219.245 53.0465 219.245 51.6772C219.245 50.6642 219.402 49.7544 219.716 48.948C220.048 48.1412 220.463 47.4285 220.961 46.8096C221.477 46.1718 222.04 45.6277 222.648 45.1776C223.276 44.7272 223.884 44.3524 224.474 44.0521C225.065 43.7519 225.6 43.5175 226.079 43.3488C226.559 43.1799 226.918 43.0674 227.158 43.011L227.739 44.1647C227.315 44.3897 226.836 44.6993 226.3 45.0933C225.784 45.4685 225.295 45.9561 224.834 46.5563C224.373 47.1377 223.986 47.8504 223.672 48.6947C223.359 49.5388 223.202 50.5329 223.202 51.6772C223.202 52.8964 223.405 53.9936 223.811 54.969C224.216 55.9255 224.779 56.7416 225.498 57.4167C226.236 58.0733 227.103 58.5798 228.099 58.9361C229.113 59.2737 230.22 59.4426 231.419 59.4426C232.655 59.4426 233.826 59.2925 234.933 58.9926C236.058 58.6735 237.045 58.1482 237.893 57.4167C238.742 56.6852 239.415 55.7193 239.913 54.5189C240.411 53.3182 240.66 51.827 240.66 50.0452C240.66 48.2632 240.558 46.4811 240.356 44.6993C240.171 42.8985 239.968 41.0979 239.747 39.297C239.526 37.4777 239.314 35.6583 239.11 33.8386C238.926 32.0005 238.834 30.1434 238.834 28.2677C238.834 26.6358 238.917 25.1446 239.083 23.7941C239.267 22.4248 239.544 21.1305 239.913 19.9112C238.456 19.6862 236.962 19.4235 235.431 19.1235C233.9 18.8046 232.397 18.5044 230.921 18.2231C229.464 17.9417 228.071 17.7073 226.743 17.5197C225.434 17.3133 224.253 17.2102 223.202 17.2102C221.781 17.2102 220.601 17.3321 219.661 17.5759C218.72 17.801 217.963 18.1105 217.392 18.5044C216.82 18.8984 216.423 19.3579 216.202 19.8831C215.962 20.3896 215.842 20.9335 215.842 21.515C215.842 22.0965 215.981 22.6311 216.257 23.1188C216.515 23.6065 216.894 24.0379 217.392 24.4131C217.89 24.7694 218.48 25.0508 219.162 25.2571C219.863 25.4635 220.638 25.5666 221.487 25.5666C222.427 25.5666 223.257 25.4635 223.976 25.2571C224.714 25.032 225.341 24.7882 225.858 24.5256C226.467 24.2255 227.001 23.8785 227.463 23.4845L228.016 24.6944C227.444 25.1258 226.817 25.5103 226.135 25.848C225.544 26.1481 224.853 26.4201 224.06 26.6639C223.285 26.889 222.427 27.0016 221.487 27.0016C220.251 27.0016 219.153 26.8328 218.194 26.4951C217.253 26.1575 216.46 25.7073 215.815 25.1446C215.169 24.5631 214.68 23.8878 214.348 23.1188C214.016 22.3497 213.85 21.5338 213.85 20.6709C213.85 19.7518 214.007 18.8608 214.32 17.998C214.616 17.1352 215.123 16.3661 215.842 15.6908C216.543 15.0155 217.475 14.481 218.637 14.0871C219.799 13.6744 221.228 13.4681 222.925 13.4681C224.493 13.4681 226.061 13.5994 227.628 13.862C229.215 14.1058 230.774 14.4153 232.304 14.7905C233.854 15.1469 235.357 15.5408 236.814 15.9722C238.29 16.3848 239.701 16.76 241.047 17.0976C241.84 15.6158 242.827 14.4341 244.008 13.5525C245.188 12.6521 246.47 12.2019 247.854 12.2019C248.444 12.2019 248.969 12.3051 249.431 12.5114C249.892 12.699 250.279 12.9522 250.592 13.2711C250.906 13.59 251.137 13.9651 251.284 14.3966C251.45 14.8092 251.533 15.25 251.533 15.719C251.533 16.5068 251.349 17.1914 250.98 17.7729C250.629 18.3356 250.141 18.814 249.513 19.2079C248.886 19.583 248.148 19.8644 247.3 20.0519C246.452 20.2207 245.539 20.3051 244.561 20.3051C244.34 20.3051 244.109 20.3051 243.869 20.3051C243.648 20.3051 243.427 20.2864 243.205 20.2489C243.039 20.8867 242.901 21.712 242.79 22.7249C242.68 23.7378 242.624 24.8351 242.624 26.0168ZM247.854 13.7494C247.023 13.7494 246.258 14.0589 245.557 14.6779C244.856 15.2782 244.275 16.3098 243.814 17.7729C244.386 17.8667 244.939 17.9417 245.474 17.998C246.009 18.0543 246.516 18.0824 246.996 18.0824C247.494 18.0824 247.918 18.0168 248.268 17.8854C248.637 17.7354 248.932 17.5478 249.154 17.3227C249.375 17.0976 249.541 16.8444 249.652 16.5631C249.762 16.2817 249.818 16.0003 249.818 15.719C249.818 15.175 249.633 14.7154 249.264 14.3403C248.896 13.9464 248.425 13.7494 247.854 13.7494Z" fill="black"/>
<path fill-rule="evenodd" clip-rule="evenodd" d="M49.245 58.4667C58.1598 63.701 69.5592 60.5945 74.7062 51.5286C79.8533 42.4627 76.7989 30.8698 67.884 25.6357C58.9689 20.4014 47.5696 23.5077 42.4225 32.5736C37.2754 41.6396 40.3298 53.2324 49.245 58.4667ZM51.4817 54.5268C58.2567 58.5049 66.9205 56.1442 70.8323 49.254C74.7441 42.3638 72.4224 33.5535 65.6473 29.5754C58.872 25.5974 50.2082 27.9581 46.2964 34.8482C42.3849 41.7384 44.7063 50.549 51.4817 54.5268Z" fill="#FFD700"/>
<path d="M66.7937 20.2008L72.975 23.8704L69.3665 30.1564L63.1852 26.4868L66.7937 20.2008Z" fill="#FFD700"/>
<path fill-rule="evenodd" clip-rule="evenodd" d="M76.2302 24.768C78.14 21.441 77.0363 17.1695 73.7644 15.2273C70.4929 13.2851 66.2927 14.4076 64.3829 17.7346L62.8792 20.3538L74.7265 27.3872L76.2302 24.768ZM73.3943 23.0845C73.4212 23.0421 73.4471 22.999 73.4722 22.9552C74.4271 21.2917 73.8754 19.1559 72.2396 18.1848C70.6038 17.2137 68.5034 17.7749 67.5485 19.4385C67.5235 19.4823 67.4993 19.5265 67.4761 19.5711L73.3943 23.0845Z" fill="#FFD700"/>
</svg>
