<svg width="46" height="47" viewBox="0 0 46 47" fill="none" xmlns="http://www.w3.org/2000/svg">
<rect width="46" height="46.6389" transform="translate(0 0.125)" fill="#FFD700"/>
<path d="M18.2083 5.95486C21.5125 5.95486 24.6813 7.28566 27.0177 9.65451C29.3541 12.0233 30.6667 15.2362 30.6667 18.5862C30.6667 21.7149 29.5358 24.591 27.6767 26.8063L28.1942 27.331H29.7083L39.2917 37.0475L36.4167 39.9624L26.8333 30.246V28.7108L26.3158 28.1861C24.0552 30.1425 21.1805 31.2174 18.2083 31.2176C14.9042 31.2176 11.7354 29.8868 9.39896 27.518C7.06257 25.1491 5.75 21.9363 5.75 18.5862C5.75 15.2362 7.06257 12.0233 9.39896 9.65451C11.7354 7.28566 14.9042 5.95486 18.2083 5.95486ZM18.2083 9.84144C13.4167 9.84144 9.58333 13.728 9.58333 18.5862C9.58333 23.4445 13.4167 27.331 18.2083 27.331C23 27.331 26.8333 23.4445 26.8333 18.5862C26.8333 13.728 23 9.84144 18.2083 9.84144Z" fill="white"/>
</svg>
