<svg width="36" height="35" viewBox="0 0 36 35" fill="none" xmlns="http://www.w3.org/2000/svg">
<path d="M15.3075 0.947509C17.0406 0.280884 18.9594 0.280884 20.6925 0.947509L33.0975 5.71751C34.545 6.27501 35.5 7.66751 35.5 9.21751V25.7825C35.5001 26.5403 35.2706 27.2804 34.8417 27.9052C34.4128 28.53 33.8047 29.0102 33.0975 29.2825L20.6925 34.055C18.9594 34.7216 17.0406 34.7216 15.3075 34.055L2.905 29.2825C2.19732 29.0106 1.58867 28.5306 1.15933 27.9057C0.729981 27.2809 0.5001 26.5406 0.5 25.7825V9.21751C0.5001 8.45939 0.729981 7.7191 1.15933 7.09427C1.58867 6.46944 2.19732 5.98942 2.905 5.71751L15.3075 0.947509ZM19.795 3.28001C18.6396 2.83559 17.3604 2.83559 16.205 3.28001L12.745 4.61251L26.72 9.90251L31.59 7.81751L19.795 3.28001ZM33 9.93001L19.25 15.825V31.895C19.435 31.8475 19.615 31.79 19.795 31.72L32.2 26.95C32.4357 26.8591 32.6383 26.6988 32.7811 26.4904C32.924 26.282 33.0003 26.0352 33 25.7825V9.93251V9.93001ZM16.75 31.895V15.825L3 9.93251V25.7825C2.99974 26.0352 3.07604 26.282 3.21885 26.4904C3.36167 26.6988 3.56429 26.8591 3.8 26.95L16.205 31.72C16.385 31.79 16.565 31.8475 16.75 31.895ZM4.41 7.81751L18 13.6425L23.41 11.3225L9.2425 5.95751L4.41 7.81751Z" fill="black" />
</svg>
