<svg width="35" height="35" viewBox="0 0 35 35" fill="none" xmlns="http://www.w3.org/2000/svg">
<path fill-rule="evenodd" clip-rule="evenodd" d="M9.84079 26.4283C15.545 25.595 19.4725 25.6667 25.1841 26.4575C25.5978 26.5175 25.9757 26.7251 26.2482 27.042C26.5207 27.3589 26.6693 27.7637 26.6666 28.1817C26.6666 28.5817 26.5291 28.97 26.2808 29.2733C25.848 29.8022 25.4045 30.3223 24.9508 30.8333H27.1516C27.29 30.6683 27.4291 30.5 27.57 30.3292C28.0643 29.723 28.3339 28.9647 28.3333 28.1825C28.3333 26.495 27.1016 25.0408 25.4125 24.8075C19.5658 23.9983 15.4791 23.9208 9.59996 24.78C7.89329 25.0292 6.66663 26.5058 6.66663 28.205C6.66663 28.9592 6.91246 29.705 7.37829 30.3092C7.51579 30.4875 7.65163 30.6625 7.78663 30.8342H9.93413C9.51198 30.3288 9.10023 29.8148 8.69913 29.2925C8.46076 28.9799 8.33217 28.5973 8.33329 28.2042C8.33329 27.3067 8.97829 26.5542 9.84079 26.4283Z" fill="black"/>
<path fill-rule="evenodd" clip-rule="evenodd" d="M17.5 18.3334C18.1566 18.3334 18.8068 18.204 19.4134 17.9528C20.02 17.7015 20.5712 17.3332 21.0355 16.8689C21.4998 16.4046 21.8681 15.8534 22.1194 15.2468C22.3707 14.6401 22.5 13.99 22.5 13.3334C22.5 12.6767 22.3707 12.0266 22.1194 11.4199C21.8681 10.8133 21.4998 10.2621 21.0355 9.79782C20.5712 9.33353 20.02 8.96523 19.4134 8.71396C18.8068 8.46268 18.1566 8.33335 17.5 8.33335C16.1739 8.33335 14.9021 8.86014 13.9644 9.79782C13.0268 10.7355 12.5 12.0073 12.5 13.3334C12.5 14.6594 13.0268 15.9312 13.9644 16.8689C14.9021 17.8066 16.1739 18.3334 17.5 18.3334ZM17.5 20C19.2681 20 20.9638 19.2976 22.214 18.0474C23.4643 16.7972 24.1666 15.1015 24.1666 13.3334C24.1666 11.5652 23.4643 9.86955 22.214 8.61931C20.9638 7.36907 19.2681 6.66669 17.5 6.66669C15.7319 6.66669 14.0362 7.36907 12.7859 8.61931C11.5357 9.86955 10.8333 11.5652 10.8333 13.3334C10.8333 15.1015 11.5357 16.7972 12.7859 18.0474C14.0362 19.2976 15.7319 20 17.5 20Z" fill="black"/>
<path fill-rule="evenodd" clip-rule="evenodd" d="M17.5 32.5C25.7841 32.5 32.5 25.7842 32.5 17.5C32.5 9.21584 25.7841 2.50001 17.5 2.50001C9.21581 2.50001 2.49998 9.21584 2.49998 17.5C2.49998 25.7842 9.21581 32.5 17.5 32.5ZM17.5 34.1667C26.705 34.1667 34.1666 26.705 34.1666 17.5C34.1666 8.29501 26.705 0.833344 17.5 0.833344C8.29498 0.833344 0.833313 8.29501 0.833313 17.5C0.833313 26.705 8.29498 34.1667 17.5 34.1667Z" fill="black"/>
</svg>
