<svg width="215" height="285" viewBox="0 0 215 285" fill="none" xmlns="http://www.w3.org/2000/svg">
<path fill-rule="evenodd" clip-rule="evenodd" d="M108.158 284.353C167.281 284.716 214.914 236.741 214.551 177.2C214.188 117.658 165.965 69.0945 106.843 68.7319C47.7195 68.3695 0.0858419 116.343 0.448589 175.885C0.811161 235.427 49.0342 283.99 108.158 284.353ZM108 258.477C152.932 258.754 189.135 222.294 188.859 177.042C188.584 131.789 151.933 94.8835 107.001 94.6064C62.0676 94.3305 25.8649 130.791 26.1404 176.043C26.4174 221.295 63.067 258.203 108 258.477Z" fill="#FFD700"/>
<path d="M86.2972 44.9846L127.406 45.4357L127.461 86.8334L86.3517 86.3822L86.2972 44.9846Z" fill="#FFD700"/>
<path fill-rule="evenodd" clip-rule="evenodd" d="M146.191 40.5488C146.162 18.6383 128.501 0.682306 106.742 0.44417C84.9848 0.205185 67.371 17.773 67.4001 39.6835L67.4223 56.9327L146.213 57.7981L146.191 40.5488ZM127.331 40.3417C127.344 40.0556 127.349 39.7683 127.348 39.4797C127.334 28.5245 118.504 19.546 107.625 19.4266C96.7464 19.307 87.938 28.0918 87.9526 39.0471C87.9537 39.3357 87.9601 39.6233 87.9719 39.9099L127.331 40.3417Z" fill="#FFD700"/>
</svg>
