<svg width="613" height="466" viewBox="0 0 613 466" fill="none" xmlns="http://www.w3.org/2000/svg">
<path fill-rule="evenodd" clip-rule="evenodd" d="M433.455 52.148C451.704 49.6662 465.401 38.8442 464.049 27.9767C462.698 17.1098 446.81 10.3124 428.561 12.7942C410.313 15.2764 396.615 26.098 397.967 36.9655C399.319 47.833 415.208 54.6305 433.455 52.148ZM432.231 42.3096C442.66 40.8913 450.564 35.3364 449.889 29.903C449.214 24.4695 440.212 21.2144 429.784 22.6327C419.358 24.0513 411.452 29.6057 412.127 35.0392C412.804 40.4731 421.805 43.7282 432.231 42.3096Z" fill="#FFD700"/>
<path fill-rule="evenodd" clip-rule="evenodd" d="M377.909 61.4132C395.947 57.694 408.875 45.964 406.785 35.2139C404.698 24.4642 388.383 18.7649 370.345 22.4841C352.309 26.2036 339.38 37.9333 341.469 48.6834C343.558 59.4336 359.873 65.1328 377.909 61.4132ZM376.018 51.6809C386.325 49.5556 393.833 43.4751 392.79 38.1003C391.746 32.7254 382.544 30.0911 372.236 32.2164C361.931 34.342 354.421 40.422 355.465 45.797C356.511 51.1722 365.713 53.8065 376.018 51.6809Z" fill="#FFD700"/>
<path fill-rule="evenodd" clip-rule="evenodd" d="M483.408 57.2073C500.768 63.3562 517.9 60.0061 521.673 49.7255C525.448 39.4462 514.435 26.1286 497.074 19.9797C479.715 13.832 462.582 17.1809 458.809 27.4615C455.035 37.7421 466.048 51.0597 483.408 57.2073ZM486.824 47.9004C496.744 51.414 506.315 50.0946 508.203 44.955C510.09 39.8153 503.578 32.8002 493.658 29.2866C483.739 25.7742 474.167 27.0923 472.279 32.232C470.393 37.3729 476.905 44.3879 486.824 47.9004Z" fill="#FFD700"/>
<path fill-rule="evenodd" clip-rule="evenodd" d="M524.648 74.9831C536.994 88.649 553.657 93.8505 561.866 86.6021C570.076 79.3554 566.723 62.4024 554.376 48.7365C542.031 35.0721 525.367 29.869 517.158 37.1174C508.948 44.3658 512.302 61.3188 524.648 74.9831ZM532.08 68.4214C539.135 76.2305 548.181 79.6221 552.286 75.9988C556.391 72.3754 553.999 63.1072 546.944 55.2981C539.89 47.4906 530.843 44.0974 526.738 47.7208C522.634 51.3458 525.025 60.6139 532.08 68.4214Z" fill="#FFD700"/>
<path fill-rule="evenodd" clip-rule="evenodd" d="M550.361 114.145C555.09 131.944 567.529 144.191 578.145 141.5C588.76 138.811 593.532 122.201 588.803 104.401C584.074 86.6035 571.635 74.3549 561.02 77.0459C550.404 79.737 545.632 96.3466 550.361 114.145ZM559.972 111.709C562.674 121.88 569.167 129.034 574.475 127.689C579.782 126.344 581.895 117.009 579.192 106.837C576.49 96.6677 569.997 89.5124 564.689 90.8571C559.381 92.2035 557.269 101.539 559.972 111.709Z" fill="#FFD700"/>
<path fill-rule="evenodd" clip-rule="evenodd" d="M555.083 164.794C556.277 183.173 566.109 197.596 577.045 197.011C587.98 196.428 595.877 181.056 594.684 162.678C593.49 144.301 583.658 129.876 572.723 130.461C561.787 131.046 553.89 146.417 555.083 164.794ZM564.984 164.265C565.665 174.767 570.651 183.043 576.119 182.751C581.586 182.459 585.466 173.709 584.784 163.207C584.101 152.707 579.117 144.43 573.649 144.721C568.181 145.014 564.301 153.765 564.984 164.265Z" fill="#FFD700"/>
<path fill-rule="evenodd" clip-rule="evenodd" d="M555.006 216.991C550.974 234.962 556.345 251.571 567.003 254.09C577.659 256.61 589.567 244.086 593.599 226.116C597.63 208.147 592.259 191.536 581.602 189.017C570.944 186.498 559.037 199.022 555.006 216.991ZM564.654 219.272C562.35 229.541 564.803 238.886 570.131 240.146C575.459 241.406 581.646 234.103 583.95 223.834C586.254 213.567 583.802 204.221 578.474 202.961C573.144 201.702 566.957 209.005 564.654 219.272Z" fill="#FFD700"/>
<path fill-rule="evenodd" clip-rule="evenodd" d="M548.907 267.488C543.511 285.097 547.595 302.069 558.029 305.397C568.461 308.725 581.292 297.149 586.688 279.54C592.083 261.932 587.999 244.959 577.566 241.632C567.132 238.304 554.301 249.881 548.907 267.488ZM558.352 270.501C555.269 280.564 556.999 290.069 562.215 291.733C567.431 293.397 574.159 286.589 577.243 276.527C580.325 266.466 578.596 256.96 573.38 255.295C568.162 253.632 561.434 260.44 558.352 270.501Z" fill="#FFD700"/>
<path fill-rule="evenodd" clip-rule="evenodd" d="M512.35 369.13C501.156 383.755 499.07 401.086 507.69 407.84C516.309 414.596 532.37 408.217 543.564 393.592C554.756 378.968 556.843 361.636 548.223 354.881C539.603 348.126 523.542 354.506 512.35 369.13ZM520.153 375.245C513.757 383.602 512.066 393.115 516.376 396.492C520.685 399.87 529.364 395.833 535.76 387.476C542.155 379.12 543.847 369.607 539.538 366.229C535.227 362.852 526.548 366.889 520.153 375.245Z" fill="#FFD700"/>
<path fill-rule="evenodd" clip-rule="evenodd" d="M476.497 400.227C460.548 409.437 451.972 424.641 457.34 434.186C462.707 443.732 479.986 444.004 495.935 434.794C511.882 425.584 520.46 410.379 515.092 400.834C509.723 391.289 492.444 391.017 476.497 400.227ZM481.356 408.869C472.243 414.132 467.032 422.267 469.715 427.04C472.398 431.812 481.962 431.415 491.075 426.152C500.187 420.889 505.4 412.754 502.717 407.981C500.032 403.208 490.468 403.606 481.356 408.869Z" fill="#FFD700"/>
<path fill-rule="evenodd" clip-rule="evenodd" d="M570.789 336.904C578.329 320.101 576.383 302.754 566.443 298.157C556.505 293.559 542.336 303.453 534.796 320.255C527.257 337.057 529.202 354.406 539.141 359.003C549.081 363.6 563.25 353.706 570.789 336.904ZM561.791 332.742C566.099 323.14 565.563 313.494 560.593 311.195C555.624 308.896 548.103 314.816 543.794 324.418C539.487 334.018 540.022 343.666 544.992 345.965C549.962 348.263 557.483 342.343 561.791 332.742Z" fill="#FFD700"/>
<path fill-rule="evenodd" clip-rule="evenodd" d="M429.92 408.683C411.523 407.819 396.093 415.982 395.455 426.915C394.815 437.847 409.21 447.409 427.607 448.272C446.003 449.135 461.434 440.973 462.072 430.04C462.71 419.108 448.315 409.546 429.92 408.683ZM429.342 418.58C418.829 418.087 410.049 422.119 409.73 427.584C409.41 433.05 417.673 437.882 428.185 438.375C438.696 438.868 447.478 434.837 447.797 429.371C448.116 423.904 439.853 419.073 429.342 418.58Z" fill="#FFD700"/>
<path fill-rule="evenodd" clip-rule="evenodd" d="M373.582 409.02C355.47 405.68 339.079 411.685 336.971 422.432C334.861 433.177 347.833 444.595 365.945 447.935C384.055 451.274 400.447 445.27 402.556 434.523C404.664 423.777 391.692 412.359 373.582 409.02ZM371.672 418.749C361.323 416.84 352.079 419.65 351.024 425.022C349.969 430.395 357.504 436.298 367.854 438.206C378.202 440.114 387.447 437.305 388.502 431.933C389.556 426.559 382.021 420.656 371.672 418.749Z" fill="#FFD700"/>
<path fill-rule="evenodd" clip-rule="evenodd" d="M318.884 397.287C301.32 391.746 284.316 395.69 280.902 406.095C277.487 416.499 288.956 429.426 306.52 434.968C324.082 440.508 341.088 436.565 344.502 426.16C347.916 415.754 336.446 402.827 318.884 397.287ZM315.793 406.707C305.757 403.541 296.237 405.192 294.53 410.394C292.822 415.597 299.575 422.381 309.611 425.547C319.646 428.713 329.166 427.063 330.874 421.86C332.58 416.657 325.828 409.873 315.793 406.707Z" fill="#FFD700"/>
<path fill-rule="evenodd" clip-rule="evenodd" d="M270.434 381.816C253.919 373.665 236.512 374.973 231.554 384.737C226.594 394.5 235.962 409.023 252.476 417.174C268.99 425.324 286.398 424.017 291.357 414.253C296.316 404.489 286.948 389.966 270.434 381.816ZM265.945 390.656C256.508 385.998 246.848 386.18 244.368 391.062C241.889 395.943 247.529 403.677 256.966 408.335C266.402 412.991 276.062 412.81 278.542 407.928C281.021 403.046 275.381 395.312 265.945 390.656Z" fill="#FFD700"/>
<path fill-rule="evenodd" clip-rule="evenodd" d="M221.199 359.144C204.708 350.944 187.297 352.2 182.309 361.95C177.321 371.698 186.645 386.248 203.136 394.449C219.626 402.648 237.038 401.392 242.025 391.643C247.013 381.893 237.688 367.343 221.199 359.144ZM216.683 367.97C207.26 363.284 197.6 363.438 195.105 368.312C192.611 373.187 198.228 380.937 207.652 385.623C217.074 390.307 226.735 390.155 229.229 385.28C231.722 380.405 226.105 372.655 216.683 367.97Z" fill="#FFD700"/>
<path fill-rule="evenodd" clip-rule="evenodd" d="M174.821 334.541C158.589 325.839 141.148 326.561 135.864 336.153C130.579 345.744 139.453 360.573 155.684 369.275C171.914 377.976 189.357 377.255 194.641 367.663C199.925 358.071 191.051 343.242 174.821 334.541ZM170.037 343.224C160.761 338.252 151.101 338.109 148.459 342.905C145.816 347.7 151.193 355.619 160.468 360.591C169.742 365.563 179.403 365.707 182.046 360.911C184.688 356.115 179.311 348.196 170.037 343.224Z" fill="#FFD700"/>
<path fill-rule="evenodd" clip-rule="evenodd" d="M119.478 313.528C101.121 312.038 85.4224 319.67 84.4122 330.575C83.4005 341.479 97.4614 351.525 115.818 353.015C134.173 354.505 149.874 346.873 150.884 335.968C151.894 325.064 137.833 315.017 119.478 313.528ZM118.563 323.4C108.074 322.548 99.1615 326.279 98.6557 331.73C98.1499 337.182 106.244 342.292 116.733 343.143C127.221 343.994 136.135 340.265 136.641 334.813C137.145 329.36 129.051 324.25 118.563 323.4Z" fill="#FFD700"/>
<path d="M10.2188 333.185L88.7624 378.751L89.1999 288.381L10.2188 333.185Z" stroke="#FFD700" stroke-width="10"/>
<path fill-rule="evenodd" clip-rule="evenodd" d="M344.158 326.353C403.281 326.716 450.914 278.741 450.551 219.2C450.188 159.658 401.965 111.095 342.843 110.732C283.72 110.37 236.086 158.343 236.449 217.885C236.811 277.427 285.034 325.99 344.158 326.353ZM344 300.477C388.932 300.754 425.135 264.294 424.859 219.042C424.584 173.789 387.933 136.883 343.001 136.606C298.068 136.331 261.865 172.791 262.14 218.043C262.417 263.295 299.067 300.203 344 300.477Z" fill="#FFD700"/>
<path d="M322.297 86.9846L363.406 87.4357L363.461 128.833L322.352 128.382L322.297 86.9846Z" fill="#FFD700"/>
<path fill-rule="evenodd" clip-rule="evenodd" d="M382.191 82.5488C382.162 60.6383 364.501 42.6823 342.742 42.4442C320.985 42.2052 303.371 59.773 303.4 81.6835L303.422 98.9327L382.213 99.7981L382.191 82.5488ZM363.331 82.3417C363.344 82.0556 363.349 81.7683 363.348 81.4797C363.334 70.5245 354.504 61.546 343.625 61.4266C332.746 61.307 323.938 70.0918 323.953 81.0471C323.954 81.3357 323.96 81.6233 323.972 81.9099L363.331 82.3417Z" fill="#FFD700"/>
</svg>