<svg width="42" height="42" viewBox="0 0 42 42" fill="none" xmlns="http://www.w3.org/2000/svg">
<path fill-rule="evenodd" clip-rule="evenodd" d="M36.3667 5.63328C36.4889 5.7552 36.5859 5.90003 36.6521 6.05949C36.7182 6.21894 36.7523 6.38989 36.7523 6.56253C36.7523 6.73517 36.7182 6.90611 36.6521 7.06557C36.5859 7.22502 36.4889 7.36986 36.3667 7.49178L7.4917 36.3668C7.24525 36.6132 6.91099 36.7517 6.56245 36.7517C6.21391 36.7517 5.87965 36.6132 5.6332 36.3668C5.38675 36.1203 5.24829 35.7861 5.24829 35.4375C5.24829 35.089 5.38675 34.7547 5.6332 34.5083L34.5082 5.63328C34.6301 5.51105 34.775 5.41407 34.9344 5.34791C35.0939 5.28174 35.2648 5.24768 35.4374 5.24768C35.6101 5.24768 35.781 5.28174 35.9405 5.34791C36.0999 5.41407 36.2448 5.51105 36.3667 5.63328Z" fill="black"/>
<path fill-rule="evenodd" clip-rule="evenodd" d="M5.63315 5.63328C5.51093 5.7552 5.41395 5.90003 5.34778 6.05949C5.28162 6.21894 5.24756 6.38989 5.24756 6.56253C5.24756 6.73517 5.28162 6.90611 5.34778 7.06557C5.41395 7.22502 5.51093 7.36986 5.63315 7.49178L34.5082 36.3668C34.7546 36.6132 35.0889 36.7517 35.4374 36.7517C35.7859 36.7517 36.1202 36.6132 36.3667 36.3668C36.6131 36.1203 36.7516 35.7861 36.7516 35.4375C36.7516 35.089 36.6131 34.7547 36.3667 34.5083L7.49166 5.63328C7.36974 5.51105 7.2249 5.41407 7.06544 5.34791C6.90599 5.28174 6.73504 5.24768 6.5624 5.24768C6.38977 5.24768 6.21882 5.28174 6.05937 5.34791C5.89991 5.41407 5.75507 5.51105 5.63315 5.63328Z" fill="black"/>
</svg>
